<svg xmlns="http://www.w3.org/2000/svg" id="Layer_1" viewBox="0 0 541.8 622.5"><style>.st0{fill:#c11f3a}.st1{fill:#cdddf1}.st2{fill:none}.st3,.st5{fill:none;stroke-miterlimit:10}.st3,.st5,.st6,.st7{stroke:#c11f3a}.st6,.st7,.st8,.st9{stroke-miterlimit:10}.st5,.st6{stroke-width:4}.st6,.st7{fill:#cdddf1}.st7{stroke-width:5}.st8,.st9{fill:#c11f3a;stroke:#cdddf1;stroke-width:4}.st9{stroke-width:5}.st10{fill:#fff}</style><path d="M537 152.4L275.1 1.3c-3-1.7-6.6-1.7-9.6 0L3.6 152.4c-3 1.7-4.8 4.9-4.8 8.3v302.4c0 3.4 1.8 6.6 4.8 8.3l261.9 151.1c1.6.8 3.1 1.3 4.8 1.3s3.4-.4 4.8-1.3L537 471.4c3-1.7 4.8-4.9 4.8-8.3V160.7c0-3.3-1.8-6.6-4.8-8.3z" class="st0"/><path d="M523 457.9L270.3 603.7 17.6 457.9V166.1L270.3 20 523 166.1z" class="st1"/><circle cx="272.6" cy="314.3" r=".7" class="st2"/><path d="M378.8 110.9L271.7 49.1c-.1-.1-.3-.1-.4-.1H270.7h-.8c-.1 0-.3.1-.4.1l-105.4 60.8c-1.3.7-1.7 2.3-1 3.5s2.4 1.7 3.5 1l93.7-54-39.8 50.8c-.8 1.1-.7 2.8.4 3.7 1.1.8 2.8.7 3.7-.4L268.1 59v54.2c0 1.4 1.1 2.7 2.7 2.7s2.7-1.1 2.7-2.7V59l43.5 55.5c.6.7 1.3 1 2.1 1 .6 0 1.1-.1 1.6-.6 1.1-.8 1.3-2.5.4-3.7l-39.8-50.8 95.4 55c.4.3.8.3 1.3.3.8 0 1.8-.4 2.3-1.3.2-1.1-.2-2.8-1.5-3.5zM176 177.7c1.1 0 2-.8 2-2v-10l8.2 10.7c.6.7 1.1 1.3 2.1 1.3h.1c1.1 0 2.1-.8 2.1-2.1v-14.8c0-1.1-.8-2-2-2-1.1 0-2 .8-2 2v9.6l-7.9-10.4c-.6-.7-1.1-1.3-2.1-1.3h-.4c-1.1 0-2.1.8-2.1 2.1v14.8c.1 1.2.9 2.1 2 2.1zM204.1 177.8c5.8 0 10-4.4 10-9.6 0-5.4-4.1-9.6-9.9-9.6s-10 4.4-10 9.6c0 5.4 4.1 9.6 9.9 9.6zm-5.5-9.6c0-3.2 2.3-5.8 5.6-5.8 3.2 0 5.6 2.7 5.6 5.9s-2.3 5.8-5.6 5.8c-3.3-.1-5.6-2.6-5.6-5.9zM219.8 177.5h5.2c5.9 0 9.9-4.1 9.9-9.3 0-5.2-4.1-9.3-9.9-9.3h-5.2c-1.1 0-2.1.8-2.1 2.1v14.4c.1 1.3 1 2.1 2.1 2.1zm2.1-14.9h3.1c3.4 0 5.6 2.3 5.6 5.6 0 3.2-2.3 5.6-5.6 5.6h-3.1v-11.2zM240.7 177.5h10.4c1 0 1.8-.8 1.8-1.8s-.8-1.8-1.8-1.8h-8.5v-4h7.1c1 0 1.8-.8 1.8-1.8s-.8-1.8-1.8-1.8h-7.1v-3.9h8.3c1 0 1.8-.8 1.8-1.8s-.8-1.8-1.8-1.8h-10.3c-1.1 0-2.1.8-2.1 2.1v14.5c.2 1.3 1 2.1 2.2 2.1zM256.2 175.6c2.1 1.6 4.5 2.3 7.1 2.3 4.1 0 6.9-2.1 6.9-5.8 0-3.2-2.1-4.7-5.9-5.6-3.2-.8-4.1-1.3-4.1-2.4 0-.8.8-1.7 2.4-1.7 1.3 0 2.5.4 4 1.3.3.1.7.3 1 .3 1.1 0 2-.8 2-1.8 0-.8-.4-1.4-.8-1.7-1.7-1.1-3.7-1.7-5.9-1.7-3.8 0-6.5 2.3-6.5 5.6 0 3.7 2.4 4.8 6.2 5.6 3.1.8 3.8 1.3 3.8 2.4 0 1.1-1 1.7-2.7 1.7-1.8 0-3.4-.7-4.8-1.7-.3-.1-.7-.4-1.1-.4-1.1 0-2 .8-2 1.8-.4.9 0 1.5.4 1.8zM282.3 177.8c3 0 4.9-.8 6.6-2.4.4-.3.7-.8.7-1.4 0-1-.8-1.8-2-1.8-.4 0-.8.1-1.3.4-1.1 1-2.3 1.4-4.1 1.4-3.2 0-5.4-2.7-5.4-5.9s2.3-5.8 5.4-5.8c1.4 0 2.7.4 3.8 1.3.3.1.7.4 1.3.4 1.1 0 2-.8 2-2 0-.7-.4-1.3-.8-1.7-1.6-1.1-3.4-1.8-6.2-1.8-5.8 0-9.7 4.4-9.7 9.6.2 5.5 4.3 9.7 9.7 9.7zM295.4 177.7c1.1 0 2.1-.8 2.1-2.1V170h7.6v5.6c0 1.1.8 2.1 2.1 2.1 1.1 0 2.1-.8 2.1-2.1v-14.8c0-1.1-.8-2.1-2.1-2.1-1.1 0-2.1.8-2.1 2.1v5.5h-7.6v-5.5c0-1.1-.8-2.1-2.1-2.1-1.1 0-2.1.8-2.1 2.1v14.8c0 1.2.9 2.1 2.1 2.1zM322.7 177.8c5.8 0 9.9-4.4 9.9-9.6 0-5.4-4.1-9.6-9.9-9.6s-10 4.4-10 9.6c.1 5.4 4.2 9.6 10 9.6zm-5.7-9.6c0-3.2 2.3-5.8 5.6-5.8 3.2 0 5.6 2.7 5.6 5.9s-2.3 5.8-5.6 5.8c-3.2-.1-5.6-2.6-5.6-5.9zM345.4 177.8c5.8 0 10-4.4 10-9.6 0-5.4-4.1-9.6-9.9-9.6s-10 4.4-10 9.6c0 5.4 4.1 9.6 9.9 9.6zm-5.7-9.6c0-3.2 2.3-5.8 5.6-5.8 3.2 0 5.6 2.7 5.6 5.9s-2.3 5.8-5.6 5.8c-3.2-.1-5.6-2.6-5.6-5.9zM361 177.5h9.6c1 0 1.8-.8 1.8-1.8s-.8-1.8-1.8-1.8H363v-13c0-1.1-.8-2.1-2.1-2.1-1.1 0-2.1.8-2.1 2.1v14.5c.1 1.3 1.1 2.1 2.2 2.1zM378 510.1c-.7-1.3-2.4-1.7-3.5-1l-93.6 54 39.8-50.8c.8-1.1.7-2.8-.4-3.7-1.1-.8-2.8-.7-3.7.4l-43.5 55.5v-54.1c0-1.4-1.1-2.7-2.7-2.7s-2.7 1.1-2.7 2.7v54.2l-43.5-55.5c-.8-1.1-2.5-1.3-3.7-.4-1.1.8-1.3 2.5-.4 3.7l39.8 50.8-95.4-55c-1.3-.7-2.8-.3-3.5 1s-.3 2.8 1 3.5l107.1 61.8h.1s.1.1.3.1H269.8c.1 0 .4.1.6.1.3 0 .4 0 .6-.1h.2c.1 0 .1-.1.3-.1h.1L377 513.7c1.3-.6 1.7-2.3 1-3.6z" class="st0"/><circle cx="385" cy="505.2" r="3.2" class="st0"/><circle cx="154.3" cy="505.2" r="3.2" class="st0"/><path d="M203.8 500.5c-2.1-3.7-1-8.2 3-10.4 4-2.3 8.5-1 10.4 2.7 2.1 3.7 1 8.2-3 10.4-3.9 2.3-8.4 1-10.4-2.7zm10.6-6c-1.3-2.3-4-3.1-6.2-1.8-2.3 1.3-2.8 4-1.6 6.2 1.3 2.1 4 3.1 6.2 1.8 2.3-1.4 2.9-4.1 1.6-6.2zM263.1 481.1c0-1 .7-1.7 1.7-1.7s1.7.7 1.7 1.7v5.2l6.4-6.4c.4-.4.8-.7 1.4-.7 1 0 1.6.7 1.6 1.6 0 .6-.3 1-.6 1.3l-4.5 4.1 4.8 6.1c.3.3.4.7.4 1.3 0 1-.7 1.7-1.7 1.7-.7 0-1.1-.3-1.4-.8l-4.5-5.9-1.8 2.1v3.1c0 1-.7 1.7-1.7 1.7s-1.7-.7-1.7-1.7l-.1-12.7zM331.8 489.4c.4-.8 1.6-1.1 2.4-.7.8.4 1.1 1.6.7 2.4l-6.4 10.9c-.4.8-1.6 1.1-2.4.7-.8-.4-1.1-1.6-.7-2.4l6.4-10.9z" class="st0"/><g><path d="M180.7 295.3h-4.5v-4.5h30.9v4.5h-4.5c-1.2 0-2.3 1.1-2.3 2.3v74H183v-74c-.1-1.3-1.1-2.3-2.3-2.3zM358.2 297.6v74h-17.3v-74c0-1.2-1.1-2.3-2.3-2.3h-4.5v-4.5H365v4.5h-4.5c-1.2 0-2.3 1-2.3 2.3zM291.7 350.8h14L294 371h-2.3zM308.4 346.3h-16.6v-13.4h24.3zM291.7 328.4v-14.8h15.7l8.6 14.8zM291.7 309v-18.7h2.3l10.7 18.7zM287.2 330.7V371H254V290.3h33.2zM249.5 309h-12.7l10.7-18.7h2zM234.1 313.5h15.4v14.8h-23.9zM249.5 332.9v13.4h-16.2l-7.8-13.4zM249.5 350.8V371h-2l-11.7-20.2z" class="st0"/><path d="M321.9 331.7c.1-.2.2-.3.2-.5v-.1c0-.2.1-.4.1-.6s0-.4-.1-.6v-.1c0-.1-.1-.3-.2-.4v-.1l-24.6-42.6c-.4-.7-1.1-1.1-1.9-1.1h-49.1c-.8 0-1.5.5-1.9 1.1l-24.7 42.7v.1c-.1.1-.1.3-.2.4v.1c0 .2-.1.4-.1.6s0 .4.1.6v.1c0 .1.1.3.2.4v.1l23 39.8h-37.9v-84.9h4.5c1.2 0 2.3-1.1 2.3-2.3v-6.8h118.3v6.8c0 1.2 1.1 2.3 2.3 2.3h4.5v84.9h-37.8l23-39.9z" class="st3"/><path d="M360.1 376h4.5v9.5H176.2V376h4.5zM366.9 390h5.3v9.5H168.6V390h5.3zM374.4 404h5.2v9.4h-222V404h8.8zM149.8 423.2v-5.3h237.4V427.3H149.8z" class="st0"/><path d="M435.7 247.1c-59.7 20.4-111.8-32.6-111.8-32.6h-10.4v-5.6h11.4v-10l-51.5-.2h-6l-51.5.2v10h11.4v5.6h-10.4s-52.2 53-111.8 32.6c0 0-5 20.9 14.4 28.8v7.5h37.3s14.2 16.7 27.8 1c16.9 16 29.3.5 29.3.5s17.8 15.9 29.3-.5c5.9 8.8 21.8 7.7 27.1 2.2 5.3 5.5 21.2 6.6 27.1-2.2 11.6 16.4 29.3.5 29.3.5s12.4 15.5 29.3-.5c13.7 15.7 27.8-1 27.8-1h37.3v-7.5c19.6-7.9 14.6-28.8 14.6-28.8zm-151.6-32.8l-10.7-.1v-.1h-6v.1l-10.7.1v-5.5l13.7-.2 13.7.2v5.5z" class="st1"/><path d="M227.4 208.9h29.3v5.4h-29.3zM284.1 208.9h29.3v5.4h-29.3z" class="st1"/><g><path d="M435.7 244.1c-59.7 20.4-111.8-32.6-111.8-32.6h-10.4v-5.6h11.4v-10l-51.5-.2h-6l-51.5.2v10h11.4v5.6h-10.4s-52.2 53-111.8 32.6c0 0-5 20.9 14.4 28.8v7.5h37.3s14.2 16.7 27.8 1c16.9 16 29.3.5 29.3.5s17.8 15.9 29.3-.5c5.9 8.8 21.8 7.7 27.1 2.2 5.3 5.5 21.2 6.6 27.1-2.2 11.6 16.4 29.3.5 29.3.5s12.4 15.5 29.3-.5c13.7 15.7 27.8-1 27.8-1h37.3v-7.5c19.6-7.9 14.6-28.8 14.6-28.8zm-151.6-32.8l-10.7-.1v-.1h-6v.1l-10.7.1v-5.5l13.7-.2 13.7.2v5.5z" class="st0"/><path d="M227.4 229.9h29.3v5.4h-29.3zM284.1 229.9h29.3v5.4h-29.3z" class="st0"/></g><path d="M270.4 339.2c2.9 0 5.2-2.4 5.2-5.2 0-2.9-2.4-5.2-5.2-5.2-2.9 0-5.2 2.4-5.2 5.2 0 2.8 2.4 5.2 5.2 5.2zm0-5.8c.3 0 .5.2.5.5s-.2.5-.5.5-.5-.2-.5-.5.2-.5.5-.5z" class="st1"/><g><ellipse cx="37.9" cy="399.4" class="st1" rx="12.3" ry="12.3" transform="rotate(-79.135 37.922 399.38)"/><ellipse cx="43.7" cy="396.1" class="st1" rx="13.9" ry="13.9" transform="rotate(-79.135 43.748 396.127)"/><path d="M23.3 362.5c2-11.4 12.1-18.9 22.5-16.7S63 359 61 370.4s-12.1 18.9-22.5 16.7-17.2-13.2-15.2-24.6z" class="st1"/><ellipse cx="44.1" cy="360.1" class="st1" rx="14.7" ry="14.7" transform="rotate(-79.135 44.098 360.1)"/><path d="M55 385.9c-12.3 5.2-26.5-.6-31.7-12.9-4.4-10.5.5-22.6 11-27 8.9-3.7 19.2.4 22.9 9.4 3.2 7.6-.4 16.3-7.9 19.5-6.4 2.7-13.9-.3-16.6-6.8-2.3-5.5.3-11.8 5.7-14.1 4.7-2 10 .2 12 4.9 1.7 4-.2 8.5-4.1 10.2-3.4 1.4-7.2-.2-8.6-3.5-1.2-2.9.1-6.1 3-7.4 2.4-1 5.2.1 6.2 2.5.9 2.1-.1 4.4-2.2 5.3-1.8.7-3.8-.1-4.5-1.8-.6-1.5.1-3.2 1.6-3.8 1.3-.5 2.7.1 3.3 1.3.5 1.1-.1 2.3-1.1 2.8-.9.4-2 0-2.4-1-.3-.8 0-1.7.8-2 .7-.3 1.4 0 1.7.7.2.6 0 1.2-.6 1.4-.5.2-1 0-1.2-.5" class="st5"/><ellipse cx="42.7" cy="362.7" class="st1" rx="5.4" ry="5.4" transform="rotate(-79.135 42.703 362.708)"/><path d="M53.9 389.6c3.6 8.7-.4 18.7-9.1 22.3-7.4 3.1-15.9-.4-19-7.7-2.6-6.3.3-13.5 6.6-16.1 5.3-2.2 11.5.3 13.7 5.6 1.9 4.5-.2 9.7-4.8 11.6-3.8 1.6-8.3-.2-9.9-4-1.4-3.3.2-7 3.4-8.4 2.8-1.2 6 .1 7.2 2.9 1 2.4-.1 5.1-2.5 6.1-2 .8-4.3-.1-5.2-2.1-.7-1.7.1-3.7 1.8-4.4 1.5-.6 3.1.1 3.7 1.5.5 1.2-.1 2.7-1.3 3.2-1 .4-2.3-.1-2.7-1.1-.4-.9 0-1.9.9-2.3.8-.3 1.6 0 1.9.8.3.6 0 1.4-.7 1.7-.5.2-1.2 0-1.4-.6-.2-.5 0-1 .5-1.2.4-.2.9 0 1 .4.1.3 0 .7-.4.9" class="st5"/><ellipse cx="37.6" cy="398.2" class="st1" rx="4.3" ry="4.3" transform="rotate(-79.135 37.562 398.198)"/><ellipse cx="162.3" cy="399.4" class="st1" rx="12.3" ry="12.3" transform="rotate(-10.865 162.293 399.38)"/><ellipse cx="156.4" cy="396.4" class="st1" rx="13.9" ry="13.9" transform="rotate(-10.865 156.393 396.38)"/><path d="M155.2 346.8c11-2.1 21.6 5.1 23.7 16.3s-5.1 21.9-16.1 24-21.6-5.1-23.7-16.3c-2.1-11.1 5.1-21.8 16.1-24z" class="st1"/><ellipse cx="156.1" cy="360.2" class="st1" rx="14.7" ry="14.7" transform="rotate(-10.865 156.093 360.18)"/><path d="M145.2 385.9c12.3 5.2 26.5-.6 31.7-12.9 4.4-10.5-.5-22.6-11-27-8.9-3.7-19.2.4-22.9 9.4-3.2 7.6.4 16.3 7.9 19.5 6.4 2.7 13.9-.3 16.6-6.8 2.3-5.5-.3-11.8-5.7-14.1-4.7-2-10 .2-12 4.9-1.7 4 .2 8.5 4.1 10.2 3.4 1.4 7.2-.2 8.6-3.5 1.2-2.9-.1-6.1-3-7.4-2.4-1-5.2.1-6.2 2.5-.9 2.1.1 4.4 2.2 5.3 1.8.7 3.8-.1 4.5-1.8.6-1.5-.1-3.2-1.6-3.8-1.3-.5-2.7.1-3.3 1.3-.5 1.1.1 2.3 1.1 2.8.9.4 2 0 2.4-1 .3-.8 0-1.7-.8-2-.7-.3-1.4 0-1.7.7-.2.6 0 1.2.6 1.4.5.2 1 0 1.2-.5" class="st5"/><ellipse cx="157.5" cy="362.7" class="st1" rx="5.4" ry="5.4" transform="rotate(-10.865 157.494 362.68)"/><path d="M146.3 389.6c-3.6 8.7.4 18.7 9.1 22.3 7.4 3.1 15.9-.4 19-7.7 2.6-6.3-.3-13.5-6.6-16.1-5.3-2.2-11.5.3-13.7 5.6-1.9 4.5.2 9.7 4.8 11.6 3.8 1.6 8.3-.2 9.9-4 1.4-3.3-.2-7-3.4-8.4-2.8-1.2-6 .1-7.2 2.9-1 2.4.1 5.1 2.5 6.1 2 .8 4.3-.1 5.2-2.1.7-1.7-.1-3.7-1.8-4.4-1.5-.6-3.1.1-3.7 1.5-.5 1.2.1 2.7 1.3 3.2 1 .4 2.3-.1 2.7-1.1.4-.9 0-1.9-.9-2.3-.8-.3-1.6 0-1.9.8-.3.6 0 1.4.7 1.7.5.2 1.2 0 1.4-.6.2-.5 0-1-.5-1.2-.4-.2-.9 0-1 .4-.1.3 0 .7.4.9" class="st5"/><ellipse cx="162.6" cy="398.2" class="st1" rx="4.3" ry="4.3" transform="rotate(-10.865 162.594 398.18)"/><path d="M127.1 450.8h12.4c2.8 0 5-2.2 5-5v-23.6c0-2.8-2.2-5-5-5h-12.4c-2.8 0-5 2.2-5 5v23.6c0 2.8 2.2 5 5 5z" class="st6"/><circle cx="138.4" cy="450.8" r="5.5" class="st0"/><path d="M71.6 450.8H59.2c-2.8 0-5-2.2-5-5v-23.6c0-2.8 2.2-5 5-5h12.4c2.8 0 5 2.2 5 5v23.6c0 2.8-2.3 5-5 5z" class="st6"/><path d="M48.9 302s-1.3 14.2 7.6 23.1c8.9 8.9 24.2-7.8 16-16S48.9 302 48.9 302zM152.1 301.9s-14.2-1.3-23.1 7.6c-8.9 8.9 7.8 24.2 16 16s7.1-23.6 7.1-23.6z" class="st0"/><path d="M133.3 373.5H66.1c-2.8 0-5-2.2-5-5v-44c0-2.8 2.2-5 5-5h67.2c2.8 0 5 2.2 5 5v44c0 2.8-2.3 5-5 5z" class="st7"/><circle cx="73.8" cy="345.1" r="14.9" class="st6"/><circle cx="125.5" cy="345.1" r="14.9" class="st6"/><circle cx="73.8" cy="345.1" r="6.9" class="st0"/><circle cx="125.5" cy="345.1" r="6.9" class="st0"/><path d="M141.1 408.9H58.2c-2.8 0-5-2.2-5-5v-39.3c0-2.8 2.2-5 5-5h82.9c2.8 0 5 2.2 5 5v39.3c0 2.8-2.2 5-5 5z" class="st7"/><ellipse cx="89.5" cy="359.6" class="st1" rx="10.2" ry="7.6"/><ellipse cx="109.9" cy="359.6" class="st1" rx="10.2" ry="7.6"/><g><path d="M120.3 364.6c.1-.5.1-1 .1-1.5 0-5.9-4.8-10.6-10.6-10.6-4.7 0-8.8 3.1-10.1 7.4-1.4-4.3-5.4-7.4-10.1-7.4-5.9 0-10.6 4.8-10.6 10.6 0 .5 0 1 .1 1.5h41.2z" class="st5"/><path d="M76.2 362.2h47v5.2h-47z" class="st1"/></g><circle cx="89.5" cy="361.3" r="3.5" class="st0"/><circle cx="110" cy="361.3" r="3.5" class="st0"/><path d="M125.8 455.9H74c-2.8 0-5-2.2-5-5v-39.7c0-2.8 2.2-5 5-5h51.8c2.8 0 5 2.2 5 5v39.7c0 2.7-2.3 5-5 5z" class="st6"/><path d="M131.1 462.1h-17.4c-2.8 0-5-2.2-5-5v-8.3c0-2.8 2.2-5 5-5h17.4c2.8 0 5 2.2 5 5v8.3c0 2.8-2.2 5-5 5z" class="st6"/><path d="M92.4 405.9c-.9 2.5-1.9 7.7 3.7 11.8 2.8 2.6 1.7 7.4 1.7 7.4s15-6.9 10.1-19.2c-3.8-9.4-14.6-2.5-15.5 0z" class="st8"/><circle cx="59.2" cy="450.8" r="5.5" class="st0"/><circle cx="113.9" cy="460.5" r="5.5" class="st0"/><circle cx="122.4" cy="460.5" r="5.5" class="st0"/><circle cx="130.9" cy="460.5" r="5.5" class="st0"/><g><path d="M85.6 462.1H68.2c-2.8 0-5-2.2-5-5v-8.3c0-2.8 2.2-5 5-5h17.4c2.8 0 5 2.2 5 5v8.3c0 2.8-2.2 5-5 5z" class="st6"/><circle cx="68" cy="460.5" r="5.5" class="st0"/><circle cx="76.4" cy="460.5" r="5.5" class="st0"/><circle cx="84.9" cy="460.5" r="5.5" class="st0"/></g><g><path d="M135.5 385.4H63.9c-2.8 0-5-2.2-5-5v-1.9c0-2.8 2.2-5 5-5h71.6c2.8 0 5 2.2 5 5v1.9c0 2.8-2.3 5-5 5z" class="st9"/><path d="M77.6 382.4c-.7-9.2-3.4-16-6.6-16s-5.9 6.8-6.6 16h13.2z" class="st0"/><path d="M74.9 384.4c-.4-8.3-2-14.5-3.9-14.5s-3.5 6.2-3.9 14.5h7.8z" class="st1"/><path d="M132.1 382.4c-.7-9.2-3.4-16-6.6-16-3.2 0-5.9 6.8-6.6 16h13.2z" class="st0"/><path d="M129.5 384.4c-.4-8.3-2-14.5-3.9-14.5s-3.5 6.2-3.9 14.5h7.8z" class="st1"/></g></g><g><path d="M467.3 450.8h12.4c2.8 0 5-2.2 5-5v-23.6c0-2.8-2.2-5-5-5h-12.4c-2.8 0-5 2.2-5 5v23.6c0 2.8 2.2 5 5 5z" class="st6"/><circle cx="478.6" cy="450.8" r="5.5" class="st0"/><path d="M411.7 450.8h-12.3c-2.8 0-5-2.2-5-5v-23.6c0-2.8 2.2-5 5-5h12.4c2.8 0 5 2.2 5 5v23.6c-.1 2.8-2.3 5-5.1 5z" class="st6"/><path d="M389.1 302s-1.3 14.2 7.6 23.1c8.9 8.9 24.2-7.8 16-16s-23.6-7.1-23.6-7.1zM492.3 301.9s-14.2-1.3-23.1 7.6c-8.9 8.9 7.8 24.2 16 16s7.1-23.6 7.1-23.6z" class="st0"/><path d="M473.4 373.5h-67.1c-2.8 0-5-2.2-5-5v-44c0-2.8 2.2-5 5-5h67.2c2.8 0 5 2.2 5 5v44c-.1 2.8-2.3 5-5.1 5z" class="st7"/><circle cx="414" cy="345.1" r="14.9" class="st6"/><circle cx="465.7" cy="345.1" r="14.9" class="st6"/><circle cx="414" cy="345.1" r="6.9" class="st0"/><circle cx="465.7" cy="345.1" r="6.9" class="st0"/><ellipse cx="378" cy="399.4" class="st1" rx="12.3" ry="12.3" transform="rotate(-79.135 377.954 399.342)"/><ellipse cx="383.8" cy="396.4" class="st1" rx="13.9" ry="13.9" transform="rotate(-79.135 383.836 396.35)"/><path d="M363.4 363.1c2-11.1 12.1-18.4 22.5-16.3 10.4 2.1 17.2 12.9 15.2 24s-12.1 18.4-22.5 16.3c-10.4-2.1-17.2-12.9-15.2-24z" class="st1"/><ellipse cx="384.1" cy="360.2" class="st1" rx="14.7" ry="14.7" transform="rotate(-79.135 384.045 360.148)"/><path d="M395.1 385.9c-12.3 5.2-26.5-.6-31.7-12.9-4.4-10.5.5-22.6 11-27 8.9-3.7 19.2.4 22.9 9.4 3.2 7.6-.4 16.3-7.9 19.5-6.4 2.7-13.9-.3-16.6-6.8-2.3-5.5.3-11.8 5.7-14.1 4.7-2 10 .2 12 4.9 1.7 4-.2 8.5-4.1 10.2-3.4 1.4-7.2-.2-8.6-3.5-1.2-2.9.1-6.1 3-7.4 2.4-1 5.2.1 6.2 2.5.9 2.1-.1 4.4-2.2 5.3-1.8.7-3.8-.1-4.5-1.8-.6-1.5.1-3.2 1.6-3.8 1.3-.5 2.7.1 3.3 1.3.5 1.1-.1 2.3-1.1 2.8-.9.4-2 0-2.4-1-.3-.8 0-1.7.8-2 .7-.3 1.4 0 1.7.7.2.6 0 1.2-.6 1.4-.5.2-1 0-1.2-.5" class="st5"/><ellipse cx="382.7" cy="362.8" class="st1" rx="5.4" ry="5.4" transform="rotate(-79.135 382.673 362.748)"/><path d="M393.9 389.6c3.6 8.7-.4 18.7-9.1 22.3-7.4 3.1-15.9-.4-19-7.7-2.6-6.3.3-13.5 6.6-16.1 5.3-2.2 11.5.3 13.7 5.6 1.9 4.5-.2 9.7-4.8 11.6-3.8 1.6-8.3-.2-9.9-4-1.4-3.3.2-7 3.4-8.4 2.8-1.2 6 .1 7.2 2.9 1 2.4-.1 5.1-2.5 6.1-2 .8-4.3-.1-5.2-2.1-.7-1.7.1-3.7 1.8-4.4 1.5-.6 3.1.1 3.7 1.5.5 1.2-.1 2.7-1.3 3.2-1 .4-2.3-.1-2.7-1.1-.4-.9 0-1.9.9-2.3.8-.3 1.6 0 1.9.8.3.6 0 1.4-.7 1.7-.5.2-1.2 0-1.4-.6-.2-.5 0-1 .5-1.2.4-.2.9 0 1 .4.1.3 0 .7-.4.9" class="st5"/><ellipse cx="377.8" cy="398.2" class="st1" rx="4.3" ry="4.3" transform="rotate(-79.135 377.772 398.192)"/><ellipse cx="501.4" cy="399.5" class="st1" rx="12.3" ry="12.3" transform="rotate(-10.865 501.37 399.47)"/><ellipse cx="495.6" cy="396.4" class="st1" rx="13.9" ry="13.9" transform="rotate(-10.865 495.57 396.37)"/><ellipse cx="497.1" cy="368.3" class="st1" rx="19.2" ry="19.2" transform="rotate(-10.865 497.07 368.27)"/><ellipse cx="495.3" cy="360.2" class="st10" rx="14.7" ry="14.7" transform="rotate(-10.865 495.27 360.17)"/><path d="M484.2 385.9c12.3 5.2 26.5-.6 31.7-12.9 4.4-10.5-.5-22.6-11-27-8.9-3.7-19.2.4-22.9 9.4-3.2 7.6.4 16.3 7.9 19.5 6.4 2.7 13.9-.3 16.6-6.8 2.3-5.5-.3-11.8-5.7-14.1-4.7-2-10 .2-12 4.9-1.7 4 .2 8.5 4.1 10.2 3.4 1.4 7.2-.2 8.6-3.5 1.2-2.9-.1-6.1-3-7.4-2.4-1-5.2.1-6.2 2.5-.9 2.1.1 4.4 2.2 5.3 1.8.7 3.8-.1 4.5-1.8.6-1.5-.1-3.2-1.6-3.8-1.3-.5-2.7.1-3.3 1.3-.5 1.1.1 2.3 1.1 2.8.9.4 2 0 2.4-1 .3-.8 0-1.7-.8-2-.7-.3-1.4 0-1.7.7-.2.6 0 1.2.6 1.4.5.2 1 0 1.2-.5" class="st6"/><ellipse cx="496.6" cy="362.8" class="st1" rx="5.4" ry="5.4" transform="rotate(-10.865 496.57 362.77)"/><path d="M485.3 389.6c-3.6 8.7.4 18.7 9.1 22.3 7.4 3.1 15.9-.4 19-7.7 2.6-6.3-.3-13.5-6.6-16.1-5.3-2.2-11.5.3-13.7 5.6-1.9 4.5.2 9.7 4.8 11.6 3.8 1.6 8.3-.2 9.9-4 1.4-3.3-.2-7-3.4-8.4-2.8-1.2-6 .1-7.2 2.9-1 2.4.1 5.1 2.5 6.1 2 .8 4.3-.1 5.2-2.1.7-1.7-.1-3.7-1.8-4.4-1.5-.6-3.1.1-3.7 1.5-.5 1.2.1 2.7 1.3 3.2 1 .4 2.3-.1 2.7-1.1.4-.9 0-1.9-.9-2.3-.8-.3-1.6 0-1.9.8-.3.6 0 1.4.7 1.7.5.2 1.2 0 1.4-.6.2-.5 0-1-.5-1.2-.4-.2-.9 0-1 .4-.1.3 0 .7.4.9" class="st5"/><ellipse cx="501.7" cy="398.3" class="st1" rx="4.3" ry="4.3" transform="rotate(-10.865 501.67 398.27)"/><path d="M481.3 408.9h-82.9c-2.8 0-5-2.2-5-5v-39.3c0-2.8 2.2-5 5-5h82.9c2.8 0 5 2.2 5 5v39.3c0 2.8-2.2 5-5 5z" class="st7"/><ellipse cx="429.6" cy="359.6" class="st1" rx="10.2" ry="7.6"/><ellipse cx="450.1" cy="359.6" class="st1" rx="10.2" ry="7.6"/><path d="M460.5 364.6c.1-.5.1-1 .1-1.5 0-5.9-4.8-10.6-10.6-10.6-4.7 0-8.8 3.1-10.1 7.4-1.4-4.3-5.4-7.4-10.1-7.4-5.9 0-10.6 4.8-10.6 10.6 0 .5 0 1 .1 1.5h41.2z" class="st5"/><path d="M416.4 362.2h47v5.2h-47z" class="st1"/><path d="M475.7 401.8h-71.6c-2.8 0-5-2.2-5-5v-25.1c0-2.8 2.2-5 5-5h71.6c2.8 0 5 2.2 5 5v25.1c0 2.8-2.3 5-5 5z" class="st9"/><g><path d="M407.3 368.9c.4 8.3 2 14.5 3.9 14.5s3.5-6.2 3.9-14.5h-7.8zM465.1 368.9c.4 8.3 2 14.5 3.9 14.5s3.5-6.2 3.9-14.5h-7.8zM418.3 368.9c.6 4.4 2.6 7.6 5.1 7.6s4.5-3.2 5.1-7.6h-10.2zM429.3 368.9c.6 4.4 2.6 7.6 5.1 7.6s4.5-3.2 5.1-7.6h-10.2zM440.4 368.9c.6 4.4 2.6 7.6 5.1 7.6s4.5-3.2 5.1-7.6h-10.2zM451.4 368.9c.6 4.4 2.6 7.6 5.1 7.6s4.5-3.2 5.1-7.6h-10.2z" class="st1"/></g><circle cx="429.7" cy="361.3" r="3.5" class="st0"/><circle cx="450.2" cy="361.3" r="3.5" class="st0"/><path d="M444.5 399.4c-1.5-8.1-7.7-14.2-15.2-14.2s-13.7 6.1-15.2 14.2h30.4z" class="st1"/><path d="M464.4 399.6c-1.5-6.9-7.6-12.2-15-12.2s-13.5 5.2-15 12.2h30z" class="st1"/><path d="M444.5 394.4s-2.9-7.8-8.9-10.5" class="st5"/><path d="M465.9 455.9h-51.8c-2.8 0-5-2.2-5-5v-39.7c0-2.8 2.2-5 5-5h51.8c2.8 0 5 2.2 5 5v39.7c0 2.7-2.2 5-5 5z" class="st6"/><path d="M471.3 462.1h-17.4c-2.8 0-5-2.2-5-5v-8.3c0-2.8 2.2-5 5-5h17.4c2.8 0 5 2.2 5 5v8.3c0 2.8-2.2 5-5 5z" class="st6"/><path d="M432.6 405.9c-.9 2.5-1.9 7.7 3.7 11.8 2.8 2.6 1.7 7.4 1.7 7.4s15-6.9 10.1-19.2c-3.8-9.4-14.6-2.5-15.5 0z" class="st8"/><circle cx="399.4" cy="450.8" r="5.5" class="st0"/><circle cx="454.1" cy="460.5" r="5.5" class="st0"/><circle cx="462.6" cy="460.5" r="5.5" class="st0"/><circle cx="471.1" cy="460.5" r="5.5" class="st0"/><path d="M425.8 462.1h-17.4c-2.8 0-5-2.2-5-5v-8.3c0-2.8 2.2-5 5-5h17.4c2.8 0 5 2.2 5 5v8.3c0 2.8-2.2 5-5 5z" class="st6"/><circle cx="408.1" cy="460.5" r="5.5" class="st0"/><circle cx="416.6" cy="460.5" r="5.5" class="st0"/><circle cx="425.1" cy="460.5" r="5.5" class="st0"/></g></g></svg>